<?xml version="1.0" encoding="UTF-8" standalone="no"?>
<!-- Created with Inkscape (http://www.inkscape.org/) -->

<svg
   xmlns:dc="http://purl.org/dc/elements/1.1/"
   xmlns:cc="http://creativecommons.org/ns#"
   xmlns:rdf="http://www.w3.org/1999/02/22-rdf-syntax-ns#"
   xmlns:svg="http://www.w3.org/2000/svg"
   xmlns="http://www.w3.org/2000/svg"
   xmlns:sodipodi="http://sodipodi.sourceforge.net/DTD/sodipodi-0.dtd"
   xmlns:inkscape="http://www.inkscape.org/namespaces/inkscape"
   width="800"
   height="800"
   id="svg2"
   version="1.1"
   inkscape:version="0.48.3.1 r9886"
   sodipodi:docname="icon.svg"
   inkscape:export-filename="/home/karlito/creation/photo_identitee/icon/icon.png"
   inkscape:export-xdpi="15.71"
   inkscape:export-ydpi="15.71">
  <defs
     id="defs4" />
  <sodipodi:namedview
     id="base"
     pagecolor="#ffffff"
     bordercolor="#666666"
     borderopacity="1.0"
     inkscape:pageopacity="0.0"
     inkscape:pageshadow="2"
     inkscape:zoom="0.49497475"
     inkscape:cx="434.92718"
     inkscape:cy="576.15519"
     inkscape:document-units="px"
     inkscape:current-layer="layer2"
     showgrid="false"
     inkscape:window-width="1366"
     inkscape:window-height="744"
     inkscape:window-x="0"
     inkscape:window-y="24"
     inkscape:window-maximized="1" />
  <metadata
     id="metadata7">
    <rdf:RDF>
      <cc:Work
         rdf:about="">
        <dc:format>image/svg+xml</dc:format>
        <dc:type
           rdf:resource="http://purl.org/dc/dcmitype/StillImage" />
        <dc:title />
      </cc:Work>
    </rdf:RDF>
  </metadata>
  <g
     inkscape:groupmode="layer"
     id="layer2"
     inkscape:label="fond"
     transform="translate(0,-252.36218)">
    <rect
       style="fill:#ffffff;fill-opacity:1;stroke:#000000;stroke-width:1.03300691;stroke-miterlimit:4;stroke-opacity:1;stroke-dasharray:none"
       id="rect3851"
       width="571.763"
       height="758.13818"
       x="123.23028"
       y="268.47549" />
    <text
       xml:space="preserve"
       style="font-size:40px;font-style:normal;font-weight:normal;line-height:125%;letter-spacing:0px;word-spacing:0px;fill:#000000;fill-opacity:1;stroke:none;font-family:Sans"
       x="426.6528"
       y="871.79071"
       id="text3088"
       sodipodi:linespacing="125%"><tspan
         sodipodi:role="line"
         x="426.6528"
         y="871.79071"
         id="tspan3090"><tspan
           x="426.6528"
           y="871.79071"
           style="font-size:56px;text-align:center;text-anchor:middle"
           id="tspan3092">Générateur de</tspan><tspan
           dx="0"
           x="834.84027"
           y="871.79071"
           style="font-size:56px;text-align:center;text-anchor:middle"
           id="tspan3094" /></tspan><tspan
         sodipodi:role="line"
         x="408.05905"
         y="941.79071"
         id="tspan3096"><tspan
           x="408.05905"
           y="941.79071"
           style="font-size:56px;text-align:center;text-anchor:middle"
           id="tspan3098">photo d'identité</tspan></tspan></text>
  </g>
  <g
     inkscape:label="faces"
     inkscape:groupmode="layer"
     id="layer1"
     transform="translate(0,-252.36218)">
    <g
       id="g3815"
       transform="translate(70.284271,165.66502)">
      <path
         inkscape:connector-curvature="0"
         id="rect3766"
         d="m 85.097911,127.37635 211.121899,0 0,205.06097 -211.121899,0 z"
         style="fill:#80b3ff;fill-opacity:1" />
      <path
         inkscape:connector-curvature="0"
         id="path2985"
         d="m 191.17449,190.53108 c -26.77881,0 -48.5,21.72119 -48.5,48.5 0,10.37182 3.26611,19.95985 8.8125,27.84374 -26.26925,12.40311 -44.15626,36.87386 -44.15626,65.0625 l 166.65626,0 c 0,-27.93102 -17.53908,-52.2109 -43.40625,-64.71875 5.69605,-7.94806 9.0625,-17.66318 9.0625,-28.18749 0,-26.77881 -21.68994,-48.5 -48.46875,-48.5 z"
         style="fill:#000000;fill-rule:evenodd;stroke:#000000;stroke-width:1px;stroke-linecap:butt;stroke-linejoin:miter;stroke-opacity:1" />
    </g>
    <g
       id="g3819"
       transform="translate(28.284271,165.66502)">
      <path
         id="rect3766-5"
         d="m 410.15335,127.37635 211.12189,0 0,205.06097 -211.12189,0 z"
         style="fill:#80b3ff;fill-opacity:1"
         inkscape:connector-curvature="0" />
      <path
         inkscape:connector-curvature="0"
         id="path2985-7"
         d="m 516.22992,190.53108 c -26.77881,0 -48.5,21.72119 -48.5,48.5 0,10.37182 3.26611,19.95985 8.8125,27.84374 -26.26924,12.40311 -44.15625,36.87386 -44.15625,65.0625 l 166.65625,0 c 0,-27.93102 -17.53908,-52.2109 -43.40625,-64.71875 5.69605,-7.94806 9.0625,-17.66318 9.0625,-28.18749 0,-26.77881 -21.68994,-48.5 -48.46875,-48.5 z"
         style="fill:#000000;fill-rule:evenodd;stroke:#000000;stroke-width:1px;stroke-linecap:butt;stroke-linejoin:miter;stroke-opacity:1" />
    </g>
    <g
       id="g3827"
       transform="translate(56.657416,165.66502)">
      <path
         id="rect3766-1"
         d="m 98.724766,391.26027 211.121894,0 0,205.06097 -211.121894,0 z"
         style="fill:#80b3ff;fill-opacity:1"
         inkscape:connector-curvature="0" />
      <path
         inkscape:connector-curvature="0"
         id="path2985-73"
         d="m 204.80134,454.415 c -26.77881,0 -48.5,21.72119 -48.5,48.5 0,10.37182 3.26611,19.95985 8.8125,27.84374 -26.26924,12.40311 -44.15625,36.87386 -44.15625,65.0625 l 166.65625,0 c 0,-27.93102 -17.53908,-52.2109 -43.40625,-64.71875 5.69605,-7.94806 9.0625,-17.66318 9.0625,-28.18749 0,-26.77881 -21.68994,-48.5 -48.46875,-48.5 z"
         style="fill:#000000;fill-rule:evenodd;stroke:#000000;stroke-width:1px;stroke-linecap:butt;stroke-linejoin:miter;stroke-opacity:1" />
    </g>
    <g
       id="g3823"
       transform="translate(16.855701,165.66502)">
      <path
         id="rect3766-3"
         d="m 421.58192,391.26027 211.12188,0 0,205.06097 -211.12188,0 z"
         style="fill:#80b3ff;fill-opacity:1"
         inkscape:connector-curvature="0" />
      <path
         inkscape:connector-curvature="0"
         id="path2985-70"
         d="m 527.65848,454.415 c -26.77881,0 -48.5,21.72119 -48.5,48.5 0,10.37182 3.26611,19.95985 8.8125,27.84374 -26.26924,12.40311 -44.15625,36.87386 -44.15625,65.0625 l 166.65625,0 c 0,-27.93102 -17.53908,-52.2109 -43.40625,-64.71875 5.69605,-7.94806 9.0625,-17.66318 9.0625,-28.18749 0,-26.77881 -21.68994,-48.5 -48.46875,-48.5 z"
         style="fill:#000000;fill-rule:evenodd;stroke:#000000;stroke-width:1px;stroke-linecap:butt;stroke-linejoin:miter;stroke-opacity:1" />
    </g>
  </g>
</svg>
